<svg id="Layer_1" enable-background="new 0 0 66 66" height="512" viewBox="0 0 66 66" width="512" xmlns="http://www.w3.org/2000/svg"><g style="fill:none;stroke:#000;stroke-width:2;stroke-linecap:round;stroke-linejoin:round;stroke-miterlimit:10"><g><path d="m15.6 16.7v9.6m0 26c0 2.3 1.8 4.1 4.1 4.1h31.5c2.3 0 4.1-1.8 4.1-4.1v-46.2c0-2.3-1.8-4.1-4.1-4.1h-31.4c-2.3 0-4.1 1.8-4.1 4.1v2.7"/><path d="m62.8 14.3-4.2 46c-.2 2.3-2.2 3.9-4.5 3.7l-31.4-2.9c-2.3-.2-3.9-2.2-3.7-4.5v-.2c.2 0 .5.1.8.1h31.5c2.3 0 4.1-1.8 4.1-4.1v-42.9l3.7.3c2.2.2 3.9 2.2 3.7 4.5z"/><path d="m19.3 31.6c0-3.3-2.9-6-6.3-5.6-2.5.3-4.5 2.3-4.9 4.8-.3 1.8.3 3.5 1.4 4.7.9 1 1.5 2.4 1.5 3.8v3.1h5.3v-3.1c0-1.4.6-2.8 1.6-3.9.8-1 1.4-2.3 1.4-3.8z"/><path d="m22 47h-16.8v-2.5c0-1.2 1-2.1 2.1-2.1h12.6c1.2 0 2.1 1 2.1 2.1z"/><path d="m3.2 47h20.9v4.6h-20.9z"/><g><path d="m23.6 8h25.9"/><path d="m28.1 13.7h21.4"/><path d="m34.6 19.5h14.9"/><path d="m37.5 25.2h12"/><path d="m37.9 31h11.6"/><path d="m25.6 36.8h23.9"/><path d="m31 42.5h18.5"/><path d="m33.3 47.9s0 5.5 3.7 0c0 0 .1 4.5 7.5 1.6"/></g><path d="m30.8 24 2.3 6.2-6.2-2.2"/><path d="m26.9 28 3.9-3.9-21.6-21.7c-.4-.4-1-.5-1.5-.3-1.3.6-2.2 1.5-2.7 2.7-.3.5-.1 1.1.3 1.5z"/><path d="m9.2 2.4 1.5 1.5-3.9 4-1.5-1.6c-.4-.4-.6-1-.3-1.5.5-1.3 1.5-2.2 2.7-2.7.5-.2 1.1-.1 1.5.3z"/></g><path d="m8.2 13.8-.2-1.6-1.4-.2-.5-.5c-.8-.8-.8-2.2 0-3l.7-.7"/></g></svg>