<svg height="512" viewBox="0 0 32 32" width="512" xmlns="http://www.w3.org/2000/svg"><g id="_42-Certificate" data-name="42-Certificate"><path d="m25 8h4.41l-5.41-5.41v4.41a1 1 0 0 0 1 1z"/><path d="m25 10a3 3 0 0 1 -3-3v-5h-11a3 3 0 0 0 -3 3v3a8 8 0 0 1 6 13.27v7.73a2.81 2.81 0 0 1 -.18 1h13.18a3 3 0 0 0 3-3v-17zm-10-1a1 1 0 0 1 1-1h3a1 1 0 0 1 0 2h-3a1 1 0 0 1 -1-1zm10 16h-8a1 1 0 0 1 0-2h8a1 1 0 0 1 0 2zm0-5h-6a1 1 0 0 1 0-2h6a1 1 0 0 1 0 2zm0-5h-6a1 1 0 0 1 0-2h6a1 1 0 0 1 0 2z"/><path d="m4 22.92v6.08a1 1 0 0 0 .62.92 1 1 0 0 0 1.09-.21l2.29-2.3 2.29 2.3a1 1 0 0 0 .71.29.84.84 0 0 0 .38-.08 1 1 0 0 0 .62-.92v-6.08a7.95 7.95 0 0 1 -8 0z"/><circle cx="8" cy="16" r="6"/></g></svg>