<svg width="20" height="20" viewBox="0 0 20 20" fill="none" xmlns="http://www.w3.org/2000/svg">
<path d="M17 2.93333C16.0667 2 14.9889 1.27778 13.7667 0.766666C12.5444 0.255555 11.2889 -1.04308e-06 10 -1.04308e-06C8.22222 -1.04308e-06 6.56667 0.444443 5.03333 1.33333C3.5 2.22222 2.28889 3.42222 1.4 4.93333C0.511111 6.44444 0.0666667 8.08889 0.0666667 9.86667C0.0666667 11.6444 0.511111 13.3111 1.4 14.8667L0 20L5.26667 18.6C6.73333 19.4 8.31111 19.8 10 19.8C11.7778 19.8 13.4333 19.3556 14.9667 18.4667C16.5 17.5778 17.7111 16.3778 18.6 14.8667C19.4889 13.3556 19.9333 11.7111 19.9333 9.93333C19.9333 8.6 19.6778 7.32222 19.1667 6.1C18.6556 4.87778 17.9333 3.82222 17 2.93333ZM10 18.1333C8.48889 18.1333 7.08889 17.7556 5.8 17L5.46667 16.8L2.4 17.6667L3.2 14.6L3 14.2667C2.15556 12.9333 1.73333 11.5 1.73333 9.96667C1.73333 8.43333 2.11111 7.03333 2.86667 5.76667C3.62222 4.5 4.62222 3.5 5.86667 2.76667C7.11111 2.03333 8.48889 1.66667 10 1.66667C11.1111 1.66667 12.1667 1.87778 13.1667 2.3C14.1667 2.72222 15.0556 3.32222 15.8333 4.1C16.6111 4.87778 17.2111 5.76667 17.6333 6.76667C18.0556 7.76667 18.2444 8.82222 18.2 9.93333C18.2 11.4 17.8333 12.7667 17.1 14.0333C16.3667 15.3 15.3667 16.3 14.1 17.0333C12.8333 17.7667 11.4667 18.1333 10 18.1333ZM14.5333 12C13.6 11.5111 13.0444 11.2444 12.8667 11.2C12.6889 11.1556 12.5667 11.1333 12.5 11.1333C12.4333 11.1333 12.3556 11.1778 12.2667 11.2667C12.0889 11.5333 11.8222 11.8667 11.4667 12.2667C11.3333 12.4 11.1556 12.4222 10.9333 12.3333L10.8 12.2667C10.0889 11.9556 9.47778 11.5667 8.96667 11.1C8.45556 10.6333 8 10.0667 7.6 9.4C7.51111 9.26667 7.47778 9.16667 7.5 9.1C7.52222 9.03333 7.57778 8.95555 7.66667 8.86667L8.06667 8.46667C8.11111 8.37778 8.17778 8.26667 8.26667 8.13333L8.33333 8.06667C8.37778 7.93333 8.35556 7.77778 8.26667 7.6L7.53333 5.73333C7.44444 5.55555 7.36667 5.44444 7.3 5.4C7.23333 5.35555 7.13333 5.33333 7 5.33333H6.46667C6.2 5.33333 5.97778 5.44444 5.8 5.66667C5.57778 5.93333 5.4 6.17778 5.26667 6.4C5.04444 6.75555 4.93333 7.18889 4.93333 7.7C4.93333 8.21111 5.08889 8.77778 5.4 9.4C5.57778 9.71111 5.77778 10 6 10.2667V10.3333C6.4 10.9111 6.84444 11.4444 7.33333 11.9333C8.26667 12.9111 9.22222 13.6 10.2 14C10.6 14.1778 11.0556 14.3444 11.5667 14.5C12.0778 14.6556 12.6222 14.6889 13.2 14.6C13.4667 14.6 13.7778 14.4778 14.1333 14.2333C14.4889 13.9889 14.7222 13.7333 14.8333 13.4667C14.9444 13.2 15.0111 12.9556 15.0333 12.7333C15.0556 12.5111 15.0444 12.3667 15 12.3C14.9556 12.2333 14.8444 12.1556 14.6667 12.0667L14.5333 12Z" fill="white"/>
</svg>
