<svg id="Icon" viewBox="0 0 64 64" xmlns="http://www.w3.org/2000/svg"><path d="m44.48928 19.24785c-7.24351-7.24351-15.73893-10.49206-18.9751-7.25589l-21.53573 21.53574c-.90585.90585-1.21633 2.24479-.79484 3.45454 1.26417 3.62845 3.81426 9.17291 8.94635 14.35621 5.26519 5.31778 10.94939 7.93382 14.62348 9.21446 1.21034.42187 2.54978.11201 3.45611-.79433l21.53562-21.53562c3.23617-3.23617-.01239-11.73159-7.25589-18.9751z" fill="#eee"/><path d="m3.34388 37.42806c.15997-.32715.3681-.63391.63458-.90039l21.53571-21.5357c3.23621-3.23621 11.73163.01239 18.9751 7.25586 4.68359 4.68359 7.68213 9.88263 8.35223 13.85284.88593-4.01935-2.3595-10.86011-8.35223-16.85284-7.24347-7.24347-15.73889-10.49207-18.9751-7.25586l-21.5357 21.5357c-.90588.90588-1.21637 2.24481-.79486 3.45453.05017.14398.10596.29596.16028.44586z" fill="#e0e0e0"/><ellipse cx="38.63" cy="25.107" fill="#757576" rx="4.949" ry="15.21" transform="matrix(.707 -.707 .707 .707 -6.439 34.669)"/><path d="m35.13025 28.60688s10.30912.37887 13.45486-4.56644 12.41307-.29159 12.41307 11.69838-4.87129 4.60383-5.22772 1.99987-4.27723 32.20792-8.43564 18.18812-2.09352-18.87212-5.51986-21.73351l-4.05935-3.10518-2.62536-2.48125z" fill="#44b3e6"/><path d="m38.28212 31.49087c3.30109-.2937 8.28076-1.27136 10.30298-4.45044 3.04962-4.79425 11.82684-.54523 12.36182 10.64185.03284-.58344.05127-1.22675.05127-1.94348 0-11.98993-9.26733-16.64368-12.41309-11.69836s-13.45483 4.56647-13.45483 4.56647l2.62537 2.4812.52649.40277z" fill="#2d98d4"/><circle cx="26.543" cy="33.947" fill="#757576" r="3"/><g><path d="m11.19934 26.42936c3.34506 3.47577 7.49659 6.2574 11.34473 7.62543 0 .00488-.00146.00934-.00146.01422 0 2.20557 1.79443 4 4 4s4-1.79443 4-4-1.79443-4-4-4c-1.49353 0-2.78296.83252-3.46997 2.04858-3.27612-1.20184-6.7182-3.44476-9.74646-6.401l12.89514-12.89514c1.25049-1.25195 3.77393-1.27832 6.92041-.0752 3.45605 1.32129 7.23438 3.9248 10.64063 7.33105.5127.51318 1.00488 1.03223 1.47559 1.55518.37012.41016 1.00391.44189 1.41211.07373.41113-.36963.44336-1.00195.07422-1.4126-.49414-.54834-1.00977-1.09277-1.54785-1.63037-3.60059-3.60059-7.62793-6.36523-11.33984-7.78516-2.38275-.91132-4.48352-1.19617-6.19147-.88751-7.8882-7.63811-17.54073-10.10588-22.04732-5.5988-4.55659 4.53469-2.01024 14.15356 5.58154 22.0376zm15.34326 5.63965c1.10303 0 2 .89697 2 2s-.89697 2-2 2c-.88538 0-1.62915-.58173-1.89172-1.38019.59998.14246 1.19165.25079 1.77112.32111.04102.00488.08154.00732.12207.00732.49854 0 .92969-.37207.99121-.87939.06641-.54834-.32422-1.04688-.87207-1.11328-.52155-.06329-1.05554-.16364-1.59717-.29297.36615-.40393.88953-.6626 1.47656-.6626zm-19.51074-26.26318c3.54193-3.5415 11.70007-1.28821 18.54749 4.97528-.27802.18219-.53638.39026-.77209.62628l-12.87292 12.87292c-6.12556-6.75958-8.39485-14.98168-4.90248-18.47448z"/><path d="m53.87122 21.47233c-2.51465-.73145-4.80566.07373-6.12988 2.15381-.3562.56-.82562 1.04242-1.37067 1.46063-1.03345-1.37726-2.21313-2.74213-3.53461-4.06317-3.97949-3.97949-7.46484-5.91846-9.68848-6.84473-1.05908-.44092-4.61768-1.77246-5.97998-.41113-1.3623 1.36182-.02979 4.92139.41064 5.97949 1.23267 4.16883 9.00249 12.86137 14.43796 15.56293.63708.31665 1.18432.80513 1.46377 1.45938.40308.94372.4577 2.17942.5055 4.20035.02374 1.0119.05243 2.19196.15155 3.56915l-14.63446 14.63495c-.64014.64111-1.56836.85303-2.41992.55713-3.73145-1.30078-9.23145-3.91357-14.24219-8.97412-4.89128-4.93955-7.43397-10.31775-8.70681-13.96543-.29745-.85243-.08639-1.79608.55202-2.43449l5.09913-5.09911c.39063-.39063.39063-1.02344 0-1.41406s-1.02344-.39063-1.41406 0l-5.09914 5.09861c-1.18344 1.18332-1.57565 2.9348-1.02398 4.51481 1.34159 3.84236 4.02038 9.50464 9.17195 14.70689 5.2793 5.33252 11.07373 8.08545 15.00488 9.45557.45996.16016.93701.23779 1.41211.23779 1.13525 0 2.25537-.44434 3.08008-1.26953l13.47418-13.47461c.3147 2.50574.89252 5.53583 1.98529 9.21973.57877 1.93202 1.43006 4.13689 3.12012 4.05371 2.5825-.14233 4.15474-6.29718 6.32645-18.36741l.71107-.19049c.76115.99919 1.69995 1.74819 2.72323 1.67119 2.45703-.16748 2.74121-4.43994 2.74121-7.63916 0-8.26025-4.21289-13.24902-8.12695-14.38867zm-25.27197-6.27295c1.12939-.35156 6.62158 1.03711 12.82275 7.23828 1.1972 1.19763 2.27094 2.42993 3.21594 3.67181-3.31793 1.51752-7.75964 1.62787-9.07715 1.62482-5.95764-6.08191-7.31097-11.42603-6.96155-12.53491zm30.52686 26.30518c-.60938-.03613-2.17285-2.37549-2.36426-3.7793-.13184-.95752-.93164-1.00195-1.02246-1.00391-.98145-.02051-1.00781.07373-1.89551 5.00488-.69043 3.8335-2.75977 15.32471-4.42188 16.6084-.17578-.18457-.59668-.77881-1.12793-2.56982-2.12793-7.17236-2.23242-11.60498-2.30957-14.8418-.08386-3.12769-.11006-5.32607-2.25488-7.01514-1.47858-.73492-3.64014-2.04688-6.12604-4.23621 3.42737-.22125 9.40247-1.16309 11.82526-4.97229.83203-1.30713 2.25098-1.78174 3.88281-1.30664 3.2207.9375 6.68652 5.23877 6.68652 12.46826 0 5.0415-.88574 5.63672-.87207 5.64355z"/></g></svg>