<svg id="Capa_1" enable-background="new 0 0 512 512" height="512" viewBox="0 0 512 512" width="512" xmlns="http://www.w3.org/2000/svg"><g><path d="m466 60h-45v-45c0-8.291-6.709-15-15-15h-224.797c27.515 17.873 49.356 41.548 70.827 64.834 40.386 43.799 78.531 85.166 153.97 85.166 8.291 0 15-6.709 15-15v-45h30v90h-195c-8.291 0-15 6.709-15 15v75h-15c-8.291 0-15 6.709-15 15v182c0 24.814 20.186 45 45 45s45-20.186 45-45v-182c0-8.291-6.709-15-15-15h-15v-60h195c8.291 0 15-6.709 15-15v-120c0-8.291-6.709-15-15-15z"/><path d="m229.97 85.166c-40.386-43.799-78.531-85.166-153.97-85.166-8.291 0-15 6.709-15 15v45h-15c-8.291 0-15 6.709-15 15s6.709 15 15 15h15v45c0 8.291 6.709 15 15 15h224.797c-27.516-17.873-49.356-41.548-70.827-64.834z"/></g></svg>