<svg id="A_x2B_" viewBox="0 0 200 200" xmlns="http://www.w3.org/2000/svg"><g><path d="m115.83235 159.1052c7.59029.05967 15.18063.1194 22.77086.17912l-43.11846-118.4673-.23534.08564v-.26063h-31.73196v.33428l-.23529-.08564-43.11846 118.4673c7.59029-.05973 15.18057-.1194 22.77086-.17912 4.69508-12.86431 9.39006-25.72861 14.08515-38.59292h44.75434c4.68608 12.83976 9.37221 25.67951 14.0583 38.51927zm-50.98754-59.95978c4.50889-12.35431 9.01789-24.70857 13.52678-37.06288h2.05062c4.50889 12.35431 9.01784 24.70857 13.52673 37.06288z" fill="#ffb3ba"/><path d="m20.16406 160.85791c-.4873 0-.94434-.23633-1.22559-.63477-.2832-.40137-.35254-.9165-.18359-1.37842l43.11817-118.46728c.09277-.25684.25-.47266.44531-.63623.27344-.36377.70898-.59912 1.19922-.59912h31.73145c.3877 0 .74121.14746 1.00781.38916.29297.17578.51855.44824.63672.77246l43.11914 118.46729c.16895.46191.09961.97705-.18359 1.37842-.28125.39795-.73828.63477-1.22559.63477h-.01172l-22.77148-.1792c-.62598-.00488-1.18262-.39795-1.39746-.98584l-13.69824-37.5332h-42.65527l-13.72559 37.60693c-.21484.58789-.77148.98096-1.39746.98584l-22.77051.1792h-.01172zm44.24414-118.6748-42.0957 115.65771 19.56934-.15381 13.72852-37.61523c.21582-.59229.7793-.98584 1.40918-.98584h44.75488c.62988 0 1.19336.39404 1.40918.98584l13.70117 37.5415 19.57031.15381-42.08496-115.625h-29.90918c-.01758.01416-.03516.02783-.05273.04102zm29.54102 58.4624h-29.10449c-.48926 0-.94824-.23877-1.22949-.64014-.28027-.40137-.34766-.91406-.17969-1.37402l13.52734-37.06299c.21582-.59229.7793-.98584 1.40918-.98584h2.0498c.62988 0 1.19336.39404 1.40918.98584l13.52734 37.06299c.16797.45996.10059.97266-.17969 1.37402-.28125.40137-.74023.64014-1.22949.64014zm-26.95996-3h24.81543l-12.40723-33.99609z"/></g><g><path d="m120.1204 79.94874h20.40923v20.40923h18.89744v-20.40923h20.40923v-18.89744h-20.40923v-20.40923h-18.89744v20.40923h-20.40923z" fill="#ffb3ba"/><path d="m159.42676 101.85791h-18.89746c-.82812 0-1.5-.67139-1.5-1.5v-18.90918h-18.90918c-.82812 0-1.5-.67139-1.5-1.5v-18.89746c0-.82861.67188-1.5 1.5-1.5h18.90918v-18.90918c0-.82861.67188-1.5 1.5-1.5h18.89746c.82812 0 1.5.67139 1.5 1.5v18.90918h18.90918c.82812 0 1.5.67139 1.5 1.5v18.89746c0 .82861-.67188 1.5-1.5 1.5h-18.90918v18.90918c0 .82861-.67188 1.5-1.5 1.5zm-17.39746-3h15.89746v-18.90918c0-.82861.67188-1.5 1.5-1.5h18.90918v-15.89746h-18.90918c-.82812 0-1.5-.67139-1.5-1.5v-18.90918h-15.89746v18.90918c0 .82861-.67188 1.5-1.5 1.5h-18.90918v15.89746h18.90918c.82812 0 1.5.67139 1.5 1.5z"/></g></svg>