<svg id="Capa_1" enable-background="new 0 0 512 512" height="512" viewBox="0 0 512 512" width="512" xmlns="http://www.w3.org/2000/svg"><g id="XMLID_341_"><path id="XMLID_342_" d="m214.517 245.583-52.193 107.701c.02.01.038.018.057.028 38.72 21.077 52.857 69.253 31.577 107.603l11.081.086 56.842-116.904z" fill="#fff496"/><path id="XMLID_348_" d="m381.011 52.79c-5.94-20.441-19.569-37.336-38.374-47.573l-9.208-5.012-82.46 170.156 47.339 98.817 76.056-156.419c10.162-18.462 12.524-39.747 6.647-59.969z" fill="#fff496"/><g id="XMLID_349_" fill="#00008b"><path id="XMLID_350_" d="m147.896 379.249c-7.358-4.006-15.662-6.123-24.013-6.123-18.244 0-35.04 9.845-43.834 25.69-6.431 11.589-7.938 24.973-4.243 37.684 3.717 12.787 12.238 23.354 23.995 29.753 7.356 4.005 15.659 6.122 24.011 6.123h.005c18.241 0 35.036-9.845 43.83-25.69 6.431-11.59 7.938-24.973 4.243-37.685-3.716-12.786-12.238-23.352-23.994-29.752zm2.027 57.6c-5.166 9.08-14.953 15.527-26.109 15.527-13.097 0-25.15-8.887-28.803-21.458-2.195-7.552-1.298-15.506 2.526-22.396 5.269-9.496 15.364-15.395 26.345-15.396 13.087 0 25.154 8.905 28.802 21.456 2.279 7.839.955 15.735-2.761 22.267z"/><path id="XMLID_354_" d="m388.117 373.126c-8.351 0-16.654 2.117-24.013 6.123-11.757 6.4-20.278 16.966-23.994 29.753-3.694 12.712-2.188 26.095 4.243 37.684 8.794 15.846 25.59 25.69 43.834 25.69 8.351 0 16.653-2.117 24.012-6.123 11.757-6.4 20.278-16.967 23.995-29.753 3.694-12.711 2.188-26.094-4.243-37.684-8.794-15.845-25.59-25.69-43.834-25.69zm28.871 57.792c-3.608 12.411-15.938 21.458-28.801 21.458-10.981 0-21.076-5.899-26.346-15.396-3.824-6.891-4.722-14.844-2.527-22.396 3.67-12.626 15.694-21.458 28.802-21.458 10.981 0 21.076 5.899 26.346 15.395 3.825 6.891 4.722 14.845 2.526 22.397z"/><path id="XMLID_357_" d="m467.006 379.735c-15.825-28.518-46.067-46.233-78.926-46.233-14.838 0-29.595 3.722-42.719 10.755l-162.194-338.577c-1.185-2.473-3.333-4.351-5.941-5.194-2.607-.845-5.45-.579-7.858.731-18.805 10.236-32.434 27.132-38.374 47.573-5.875 20.214-3.517 41.492 6.637 59.949l167.35 348.083c1.271 3.035 2.698 6.024 4.319 8.945 15.824 28.519 46.066 46.233 78.924 46.233 15.034 0 29.989-3.814 43.242-11.028 21.153-11.515 36.484-30.52 43.167-53.512 6.64-22.843 3.932-46.895-7.627-67.725zm-311.742-280.436c-7.67-13.82-9.469-29.776-5.065-44.927 3.447-11.863 10.368-22.133 19.88-29.722l158.615 331.105c-12.812 11.133-22.189 25.657-27.023 42.287-.357 1.23-.676 2.467-.979 3.704-151.926-315.988-145.16-301.962-145.428-302.447zm300.164 342.579c-5.184 17.833-17.089 32.581-33.524 41.527-10.329 5.623-21.976 8.595-33.68 8.595-25.518 0-48.994-13.691-61.324-35.743l-3.635-7.56c-5.874-14.296-6.763-30.022-2.389-45.073 5.184-17.834 17.09-32.582 33.525-41.528 10.328-5.623 21.975-8.595 33.679-8.595 25.595 0 49.137 13.771 61.438 35.939 8.951 16.131 11.05 34.754 5.91 52.438z"/><path id="XMLID_361_" d="m167.161 344.53c-13.254-7.215-28.206-11.028-43.241-11.028-32.858 0-63.1 17.716-78.925 46.233-11.559 20.829-14.268 44.881-7.628 67.725 6.683 22.993 22.013 41.998 43.167 53.513 13.252 7.214 28.204 11.027 43.241 11.028h.009c32.852 0 63.092-17.716 78.917-46.233 11.558-20.828 14.267-44.88 7.628-67.724-6.683-22.994-22.014-41.999-43.168-53.514zm18.052 111.533c-12.302 22.168-35.838 35.939-61.429 35.938-.002 0-.005 0-.007 0-11.707-.001-23.354-2.973-33.681-8.595-16.436-8.946-28.342-23.694-33.524-41.528-5.14-17.684-3.041-36.307 5.911-52.438 12.301-22.168 35.842-35.939 61.437-35.939 11.704 0 23.351 2.972 33.679 8.595 16.436 8.946 28.342 23.695 33.524 41.529 5.141 17.684 3.041 36.307-5.91 52.438z"/></g></g></svg>