<svg id="Layer_1" enable-background="new 0 0 500 500" viewBox="0 0 500 500" xmlns="http://www.w3.org/2000/svg"><g><path d="m201.949 465.607c-4.493 0-8.134-3.642-8.134-8.134v-56.014c0-4.493 3.641-8.135 8.134-8.135s8.134 3.642 8.134 8.135v56.014c0 4.493-3.641 8.134-8.134 8.134z"/><path d="m298.055 465.607c-4.493 0-8.135-3.642-8.135-8.134v-56.014c0-4.493 3.642-8.135 8.135-8.135s8.134 3.642 8.134 8.135v56.014c0 4.493-3.641 8.134-8.134 8.134z"/><path d="m250 303.202c-30.981 0-56.185-25.205-56.185-56.186s25.204-56.186 56.185-56.186 56.189 25.205 56.189 56.186-25.208 56.186-56.189 56.186zm0-96.102c-22.01 0-39.917 17.909-39.917 39.917s17.906 39.917 39.917 39.917 39.92-17.908 39.92-39.917c0-22.008-17.909-39.917-39.92-39.917z"/><path d="m327.272 313.236c-1.703 0-3.419-.533-4.884-1.633-3.591-2.7-4.312-7.804-1.608-11.395 11.61-15.431 17.749-33.822 17.749-53.192 0-48.82-39.714-88.534-88.53-88.534s-88.53 39.714-88.53 88.534c0 18.976 5.917 37.069 17.108 52.321 2.656 3.623 1.874 8.713-1.745 11.37-3.625 2.656-8.706 1.881-11.372-1.748-13.254-18.055-20.26-39.478-20.26-61.943 0-57.787 47.012-104.803 104.799-104.803 57.788 0 104.8 47.016 104.8 104.803 0 22.929-7.27 44.708-21.024 62.979-1.597 2.123-4.034 3.241-6.503 3.241z"/><path d="m321.435 475h-142.866c-14.817 0-27.282-11.096-29.002-25.814l-6.329-54.21c-2.145-18.366 3.743-36.764 16.16-50.473 8.945-9.882 21.538-15.685 35.459-16.352 1.017-.038 2.012.095 2.962.413l52.207 17.42 53.126-17.387c.992-.325 2.056-.464 3.07-.382 13.479.895 25.69 6.685 34.388 16.288 12.412 13.708 18.3 32.106 16.158 50.473l-6.329 54.21c-1.721 14.718-14.187 25.814-29.004 25.814zm-127.252-130.496c-6.657.559-15.545 2.987-22.728 10.918-9.263 10.232-13.657 23.959-12.057 37.668l6.33 54.215c.759 6.514 6.278 11.426 12.84 11.426h142.867c6.562 0 12.081-4.912 12.84-11.426l6.329-54.21c1.599-13.714-2.795-27.441-12.059-37.673-6.939-7.664-15.488-10.167-21.906-10.848l-54.111 17.712c-1.653.54-3.445.54-5.103-.02z"/><path d="m282.628 106.523h-65.252c-4.492 0-8.134-3.641-8.134-8.134v-65.255c0-4.493 3.642-8.134 8.134-8.134h65.252c4.492 0 8.134 3.641 8.134 8.134v65.255c0 4.493-3.642 8.134-8.134 8.134zm-57.117-16.269h48.982v-48.985h-48.982z"/><path d="m250 158.483c-4.492 0-8.134-3.641-8.134-8.134v-51.96c0-4.493 3.642-8.135 8.134-8.135 4.493 0 8.135 3.642 8.135 8.135v51.959c0 4.494-3.642 8.135-8.135 8.135z"/><path d="m121.836 173.125c-2.081 0-4.163-.794-5.752-2.382l-46.141-46.138c-1.525-1.525-2.383-3.591-2.383-5.752 0-2.155.858-4.227 2.383-5.752l46.141-46.144c1.525-1.525 3.594-2.383 5.752-2.383s4.227.858 5.752 2.383l46.138 46.144c3.177 3.178 3.177 8.325 0 11.503l-46.138 46.138c-1.589 1.589-3.67 2.383-5.752 2.383zm-34.638-54.272 34.639 34.636 34.636-34.636-34.636-34.642z"/><path d="m181.647 186.802c-2.081 0-4.163-.795-5.751-2.383l-36.743-36.745c-3.178-3.178-3.178-8.326 0-11.502 3.178-3.178 8.326-3.178 11.502 0l36.743 36.744c3.177 3.178 3.177 8.326 0 11.503-1.588 1.588-3.669 2.383-5.751 2.383z"/><path d="m101.373 287.778h-65.254c-4.493 0-8.135-3.642-8.135-8.135v-65.254c0-4.493 3.642-8.135 8.135-8.135h65.254c4.493 0 8.134 3.642 8.134 8.135v65.254c0 4.494-3.641 8.135-8.134 8.135zm-57.12-16.269h48.986v-48.985h-48.986z"/><path d="m153.335 255.15h-51.962c-4.493 0-8.134-3.641-8.134-8.134s3.641-8.134 8.134-8.134h51.962c4.493 0 8.135 3.641 8.135 8.134 0 4.494-3.641 8.134-8.135 8.134z"/><path d="m463.882 287.778h-65.251c-4.493 0-8.135-3.642-8.135-8.135v-65.254c0-4.493 3.642-8.135 8.135-8.135h65.251c4.493 0 8.134 3.642 8.134 8.135v65.254c0 4.494-3.641 8.135-8.134 8.135zm-57.117-16.269h48.983v-48.985h-48.983z"/><path d="m398.631 255.15h-51.966c-4.492 0-8.134-3.641-8.134-8.134s3.642-8.134 8.134-8.134h51.966c4.493 0 8.134 3.641 8.134 8.134 0 4.494-3.641 8.134-8.134 8.134z"/><path d="m463.882 287.778h-65.251c-4.493 0-8.135-3.642-8.135-8.135v-65.254c0-4.493 3.642-8.135 8.135-8.135h65.251c4.493 0 8.134 3.642 8.134 8.135v65.254c0 4.494-3.641 8.135-8.134 8.135zm-57.117-16.269h48.983v-48.985h-48.983z"/><path d="m398.631 255.15h-51.966c-4.492 0-8.134-3.641-8.134-8.134s3.642-8.134 8.134-8.134h51.966c4.493 0 8.134 3.641 8.134 8.134 0 4.494-3.641 8.134-8.134 8.134z"/><path d="m378.168 173.125c-2.081 0-4.163-.794-5.752-2.382l-46.141-46.138c-1.525-1.525-2.383-3.591-2.383-5.752 0-2.155.858-4.227 2.383-5.752l46.141-46.144c3.051-3.05 8.452-3.05 11.502 0l46.142 46.144c1.525 1.525 2.382 3.597 2.382 5.752 0 2.161-.857 4.227-2.382 5.752l-46.142 46.138c-1.588 1.588-3.669 2.382-5.75 2.382zm-34.639-54.272 34.639 34.636 34.639-34.636-34.639-34.642z"/><path d="m318.352 186.802c-2.08 0-4.162-.795-5.751-2.383-3.178-3.178-3.178-8.325 0-11.503l36.746-36.744c3.177-3.178 8.324-3.178 11.502 0 3.178 3.177 3.178 8.324 0 11.502l-36.746 36.745c-1.588 1.588-3.669 2.383-5.751 2.383z"/><path d="m372.648 475h-250.812c-4.493 0-8.134-3.641-8.134-8.134s3.641-8.135 8.134-8.135h250.812c4.492 0 8.134 3.642 8.134 8.135.001 4.493-3.641 8.134-8.134 8.134z"/></g></svg>