<svg id="Capa_1" enable-background="new 0 0 512 512" height="512" viewBox="0 0 512 512" width="512" xmlns="http://www.w3.org/2000/svg"><g><g><path d="m176.334 229.408c-7.934 0-14.388 6.455-14.388 14.389v22.961c0 7.934 6.454 14.388 14.388 14.388h2.303c1.209 3.617 2.676 7.151 4.388 10.578l-1.648 1.648c-5.575 5.575-5.588 14.683 0 20.329l16.271 16.272c5.618 5.557 14.725 5.546 20.301-.029l1.648-1.648c3.426 1.712 6.96 3.179 10.577 4.388v2.304c0 7.934 6.455 14.389 14.388 14.389h22.875c7.918 0 14.359-6.455 14.359-14.389v-2.3c3.613-1.208 7.146-2.674 10.578-4.391l1.648 1.649c5.606 5.603 14.727 5.603 20.329-.002l16.241-16.241c2.729-2.729 4.228-6.356 4.217-10.215-.01-3.844-1.518-7.446-4.216-10.116l-1.641-1.641c1.706-3.409 3.171-6.946 4.384-10.586h2.328c7.918 0 14.359-6.454 14.359-14.388v-22.961c0-7.934-6.441-14.389-14.359-14.389h-2.325c-1.211-3.635-2.676-7.172-4.387-10.586l1.612-1.612c2.737-2.708 4.245-6.328 4.245-10.192 0-3.865-1.508-7.485-4.217-10.166l-16.242-16.242c-5.605-5.604-14.725-5.605-20.33 0l-1.647 1.648c-3.432-1.717-6.967-3.184-10.578-4.391v-2.329c0-7.918-6.441-14.359-14.359-14.359h-22.875c-7.934 0-14.388 6.441-14.388 14.359v2.332c-3.616 1.209-7.15 2.676-10.577 4.389l-1.649-1.649c-5.574-5.574-14.681-5.585-20.329 0l-16.243 16.243c-5.603 5.604-5.603 14.725.001 20.33l1.648 1.647c-1.716 3.432-3.183 6.967-4.391 10.578h-2.299zm7.909 15c3.431 0 6.424-2.328 7.269-5.653 1.544-6.077 3.978-11.945 7.234-17.441 1.746-2.947 1.273-6.703-1.149-9.126l-5.171-5.171 15.359-15.358 5.171 5.171c2.422 2.422 6.177 2.895 9.125 1.149 5.479-3.246 11.349-5.68 17.448-7.235 3.322-.848 5.646-3.84 5.646-7.268v-7.297h21.623v7.297c0 3.431 2.328 6.425 5.653 7.27 6.076 1.543 11.944 3.977 17.441 7.233 2.947 1.746 6.702 1.271 9.126-1.149l5.17-5.171 15.358 15.358-5.171 5.171c-2.429 2.43-2.896 6.199-1.136 9.148 3.229 5.407 5.657 11.268 7.22 17.419.845 3.325 3.839 5.653 7.27 5.653h7.297v21.737h-7.297c-3.429 0-6.42 2.324-7.268 5.646-1.574 6.175-4.004 12.038-7.222 17.427-1.761 2.949-1.293 6.719 1.136 9.148l5.171 5.17-15.358 15.359-5.17-5.171c-2.422-2.424-6.18-2.897-9.127-1.149-5.493 3.255-11.361 5.688-17.441 7.234-3.324.845-5.652 3.838-5.652 7.269v7.297h-21.623v-7.297c0-3.428-2.324-6.419-5.646-7.268-6.103-1.557-11.973-3.991-17.448-7.235-2.947-1.747-6.704-1.273-9.127 1.149l-5.17 5.171-15.358-15.359 5.171-5.17c2.422-2.423 2.896-6.179 1.149-9.126-3.245-5.478-5.679-11.349-7.236-17.449-.847-3.322-3.839-5.646-7.267-5.646h-7.296v-21.737z"/><path d="m256.042 304.787c27.346 0 49.593-22.248 49.593-49.595 0-27.331-22.247-49.566-49.593-49.566-27.33 0-49.565 22.235-49.565 49.566.001 27.347 22.235 49.595 49.565 49.595zm0-84.161c19.075 0 34.593 15.507 34.593 34.566 0 19.075-15.519 34.595-34.593 34.595-19.059 0-34.565-15.52-34.565-34.595.001-19.059 15.506-34.566 34.565-34.566z"/><path d="m396.229 69.068c0-14.873-12.101-26.974-26.974-26.974-14.889 0-27.002 12.101-27.002 26.974 0 14.89 12.113 27.003 27.002 27.003 14.874 0 26.974-12.113 26.974-27.003zm-38.975 0c0-6.603 5.384-11.974 12.002-11.974 6.603 0 11.974 5.371 11.974 11.974 0 6.618-5.371 12.003-11.974 12.003-6.618 0-12.002-5.384-12.002-12.003z"/><path d="m293.204 96.071c14.873 0 26.974-12.113 26.974-27.003 0-14.873-12.101-26.974-26.974-26.974-14.889 0-27.002 12.101-27.002 26.974 0 14.89 12.113 27.003 27.002 27.003zm0-38.976c6.603 0 11.974 5.371 11.974 11.974 0 6.618-5.371 12.003-11.974 12.003-6.618 0-12.002-5.385-12.002-12.003 0-6.603 5.384-11.974 12.002-11.974z"/><path d="m66.693 42.095c-14.889 0-27.002 12.101-27.002 26.974 0 14.89 12.113 27.003 27.002 27.003h129.937c14.889 0 27.002-12.113 27.002-27.003 0-14.873-12.113-26.974-27.002-26.974zm141.939 26.973c0 6.618-5.384 12.003-12.002 12.003h-129.937c-6.618 0-12.002-5.385-12.002-12.003 0-6.603 5.384-11.974 12.002-11.974h129.937c6.618.001 12.002 5.372 12.002 11.974z"/><path d="m484.226 0h-456.48c-15.296 0-27.739 12.443-27.739 27.739v215.405c0 4.143 3.358 7.5 7.5 7.5s7.5-3.357 7.5-7.5v-104.978h223.688c4.142 0 7.5-3.357 7.5-7.5s-3.358-7.5-7.5-7.5h-223.688v-95.427c0-7.024 5.714-12.739 12.739-12.739h456.48c7.04 0 12.768 5.715 12.768 12.739v95.427h-223.689c-4.143 0-7.5 3.357-7.5 7.5s3.357 7.5 7.5 7.5h223.688v263.209c0 7.024-5.728 12.739-12.768 12.739h-79.338c-6.951-19.028-20.418-32.656-38.835-38.331l-29.58-9.126-11.677-10.959c-4.093-3.822-10.667-8.229-20.468-2.404l-48.343 28.833-48.336-28.829c-9.782-5.847-16.37-1.43-20.496 2.42l-11.631 10.941-29.604 9.125c-18.416 5.681-31.883 19.308-38.834 38.331h-79.34c-7.024 0-12.739-5.715-12.739-12.739v-123.62c0-4.143-3.358-7.5-7.5-7.5s-7.5 3.357-7.5 7.5v123.619c0 15.296 12.443 27.739 27.739 27.739h75.417c-.932 5.51-1.423 11.324-1.423 17.417v53.405c0 6.651 5.399 12.063 12.035 12.063h284.421c6.636 0 12.035-5.412 12.035-12.063v-53.405c0-6.093-.49-11.908-1.422-17.417h75.416c15.312 0 27.768-12.443 27.768-27.739v-373.636c.003-15.296-12.453-27.739-27.764-27.739zm-172.223 366.181c.594-.353 1-.532 1.241-.621.237.161.647.479 1.302 1.089l8.167 7.665-27.36 38.709-26.283-21.235zm-62.386 78.014h12.739l17.153 52.805h-47.022zm17.339-15.591c-.105.197-.209.394-.312.591l-21.42-.001-7.412-14.011 18.173-14.683 18.152 14.666zm-69.545-61.942c.668-.624 1.084-.943 1.322-1.104.238.088.639.266 1.227.617l42.942 25.611-26.28 21.233-27.34-38.711zm-80.671 79.869c0-5.427.512-13.833 2.951-22.608.047-.144.084-.292.122-.44 3.841-13.483 12.288-27.74 30.528-33.366l26.067-8.035 32.578 46.127c1.196 1.694 3.04 2.816 5.093 3.103.344.048.689.071 1.033.071 1.705 0 3.371-.582 4.713-1.666l6.1-4.929 6.62 12.515c.685 1.271 1.515 2.374 2.466 3.308l-18.293 56.389h-43.23v-44.913c0-4.143-3.358-7.5-7.5-7.5s-7.5 3.357-7.5 7.5v44.913h-41.748zm278.491 50.469h-41.748v-44.913c0-4.143-3.357-7.5-7.5-7.5s-7.5 3.357-7.5 7.5v44.913h-43.203l-18.298-56.331c1.405-1.531 2.276-3.208 2.817-4.255.12-.232.24-.468.376-.72l5.841-10.931 6.13 4.953c1.343 1.084 3.009 1.666 4.714 1.666.343 0 .688-.023 1.031-.071 2.054-.285 3.896-1.407 5.094-3.1l32.605-46.129 26.042 8.034c18.208 5.611 26.657 19.828 30.507 33.292.044.179.09.356.146.53 2.433 8.77 2.945 17.168 2.945 22.592v50.47z"/><path d="m472.281 69.068c0-14.873-12.101-26.974-26.974-26.974-14.889 0-27.002 12.101-27.002 26.974 0 14.89 12.113 27.003 27.002 27.003 14.874 0 26.974-12.113 26.974-27.003zm-38.975 0c0-6.603 5.384-11.974 12.002-11.974 6.603 0 11.974 5.371 11.974 11.974 0 6.618-5.371 12.003-11.974 12.003-6.619 0-12.002-5.384-12.002-12.003z"/></g></g></svg>