<svg id="Layer_1" enable-background="new 0 0 512 512" viewBox="0 0 512 512" xmlns="http://www.w3.org/2000/svg"><path clip-rule="evenodd" d="m235.601 16 194.086 83.179v156.937c0 23.88-3.555 46.626-10.169 67.863-8.314-2.656-17.118-4.211-26.243-4.499 6.731-19.962 10.363-41.28 10.363-63.363v-134.487c0-3.502-2.251-6.478-5.385-7.562l-159.527-68.368c-2.079-.884-4.323-.819-6.25 0l-160.037 68.586c-3.035 1.292-4.856 4.241-4.858 7.344h-.017v134.486c0 48.651 17.626 93.586 47.182 128.492 29.707 35.084 71.475 60.019 119.511 68.388 1.002.171 1.992.147 2.931-.044 20.771-3.645 40.366-10.389 58.318-19.71 1.582 8.599 4.305 16.8 8.01 24.437-20.908 10.303-43.726 17.787-67.916 22.004-111.607-19.456-194.085-108.376-194.085-223.567v-156.937zm154.596 319.425c-44.341 0-80.288 35.947-80.288 80.288s35.947 80.288 80.288 80.288 80.288-35.947 80.288-80.288c0-44.342-35.947-80.288-80.288-80.288zm44.674 63.435c-21.17 21.381-27.541 28.04-48.812 49.31-4.33 4.33-11.35 4.33-15.679 0l-24.826-24.825c-4.33-4.33-4.33-11.35 0-15.68 4.331-4.33 11.35-4.33 15.68 0l16.968 16.968 40.99-41.366c4.306-4.33 11.307-4.35 15.636-.044 4.329 4.307 4.349 11.308.043 15.637zm-199.27-337.134-152.037 65.159v129.231c0 44.767 16.202 86.094 43.37 118.179 27.067 31.966 65.014 54.777 108.667 62.708 20.941-3.805 40.567-11.035 58.311-21.056 0-.078-.003-.156-.003-.235 0-48.329 35.622-88.347 82.037-95.236 7.57-20.083 11.693-41.784 11.693-64.361v-129.23zm-97.886 264.988v-119.43h30.029v119.431h-30.029zm200.781-56.31h-12.124c9.503 0 17.278 7.774 17.278 17.277 0 9.504-7.774 17.278-17.278 17.279h-10.305c9.504 0 17.277 7.776 17.277 17.279s-7.774 17.277-17.278 17.277h-37.925c-43.331 7.513-68.429 12.069-94.396-12.801l-.001-119.431c21.208-15.931 48.277-29.58 48.277-59.712v-36.257c23.917 0 43.487 19.562 43.487 43.481v28.125c-.689 4.996-3.471 11.912-8.679 18.371h64.389c9.5 0 17.278 7.778 17.278 17.278 0 9.504-7.775 17.278-17.278 17.278h7.279c9.504 0 17.278 7.776 17.279 17.279-.002 9.502-7.776 17.277-17.28 17.277z" fill-rule="evenodd"/></svg>