<svg width="512" height="512" viewBox="0 0 512 512" fill="none" xmlns="http://www.w3.org/2000/svg">
<path d="M66.18 59.9995C70.1592 53.8666 75.6073 48.8249 82.0297 45.3322C88.4521 41.8395 95.6453 40.0064 102.956 39.9995H149.2C156.511 40.0064 163.704 41.8395 170.126 45.3322C176.549 48.8249 181.997 53.8666 185.976 59.9995H66.18ZM58.96 197.4L116.44 152.96H58.96V197.4ZM58.96 286.56L193.2 182.84V231.64L58.96 335.4V286.56ZM193.2 323.36V359.04H143.8L193.2 320.88V323.36ZM58.96 217.6L142.64 152.96H193.2V162.64L58.96 266.36V217.6ZM58.96 355.6L193.2 251.92V300.68L117.68 359.04H58.96V355.6ZM66.16 452H186C182.02 458.137 176.569 463.182 170.141 466.676C163.714 470.169 156.515 471.999 149.2 472H102.96C95.6448 471.999 88.446 470.169 82.0187 466.676C75.5914 463.182 70.1398 458.137 66.16 452ZM212.16 399.04V412C212.143 417.61 210.168 423.039 206.575 427.348C202.981 431.656 197.996 434.575 192.48 435.6C192.44 435.72 59.68 435.72 59.64 435.6C54.1284 434.573 49.1489 431.652 45.5626 427.343C41.9763 423.033 40.0087 417.606 40 412V399.04C40.0079 393.555 41.8934 388.238 45.3428 383.973C48.7923 379.709 53.5978 376.754 58.96 375.6H193.2C198.558 376.761 203.359 379.718 206.807 383.981C210.256 388.244 212.144 393.557 212.16 399.04ZM40 112.96V99.9995C40.0087 94.3931 41.9763 88.9659 45.5626 84.6565C49.1489 80.3471 54.1284 77.4264 59.64 76.3995C59.68 76.2795 192.48 76.2795 192.48 76.3995C197.996 77.4247 202.981 80.3436 206.574 84.6524C210.167 88.9611 212.143 94.3893 212.16 99.9995V112.96C212.145 118.443 210.257 123.756 206.808 128.019C203.36 132.282 198.559 135.239 193.2 136.4H58.96C53.5978 135.246 48.7923 132.291 45.3428 128.026C41.8934 123.761 40.0079 118.445 40 112.96ZM235.44 303.96L209.2 330V266.28L235.44 303.96ZM472 396.16C471.991 407.724 469.339 419.133 464.245 429.516C459.152 439.898 451.752 448.978 442.611 456.063C433.471 463.147 422.831 468.048 411.507 470.39C400.182 472.733 388.471 472.455 377.27 469.578C366.069 466.702 355.674 461.303 346.88 453.793C338.085 446.284 331.124 436.863 326.528 426.251C321.932 415.639 319.823 404.117 320.363 392.565C320.902 381.013 324.075 369.737 329.64 359.6L289.4 313.48L258.12 308.56L209.2 238.28V146.92C211.28 145.638 213.235 144.165 215.04 142.52C231.64 161.8 369.08 321.68 371.4 324.4C382.83 320.472 395.033 319.33 406.993 321.069C418.953 322.807 430.326 327.375 440.165 334.394C450.004 341.412 458.026 350.678 463.563 361.421C469.1 372.164 471.992 384.074 472 396.16ZM273.96 251.96C273.96 249.191 273.139 246.484 271.601 244.182C270.062 241.879 267.876 240.085 265.318 239.025C262.759 237.966 259.944 237.688 257.229 238.229C254.513 238.769 252.018 240.102 250.061 242.06C248.103 244.018 246.769 246.513 246.229 249.228C245.689 251.944 245.966 254.759 247.026 257.317C248.085 259.875 249.88 262.062 252.182 263.6C254.484 265.138 257.191 265.96 259.96 265.96C263.67 265.949 267.225 264.471 269.848 261.847C272.471 259.224 273.949 255.669 273.96 251.96ZM437.16 396.16C437.164 388.045 434.761 380.111 430.255 373.363C425.749 366.614 419.343 361.353 411.847 358.246C404.351 355.139 396.101 354.325 388.142 355.907C380.183 357.489 372.872 361.396 367.134 367.134C361.397 372.872 357.489 380.183 355.907 388.142C354.325 396.101 355.139 404.35 358.246 411.846C361.353 419.343 366.614 425.749 373.363 430.255C380.112 434.761 388.045 437.164 396.16 437.16C407.029 437.143 417.447 432.818 425.133 425.132C432.818 417.447 437.143 407.028 437.16 396.16ZM470.48 52.6795L328.12 249.32C313.24 232 297.6 213.8 282.4 196.04L458.72 41.9595C460.201 40.6657 462.107 39.9621 464.073 39.9829C466.04 40.0037 467.93 40.7474 469.383 42.0723C470.837 43.3972 471.752 45.2106 471.954 47.1668C472.156 49.123 471.632 51.0853 470.48 52.6795Z" fill="black"/>
</svg>
