<svg height="512" viewBox="0 0 24 24" width="512" xmlns="http://www.w3.org/2000/svg"><g id="Layer_2" data-name="Layer 2"><path d="m15 4.25a7.75 7.75 0 1 0 7.75 7.75 7.76 7.76 0 0 0 -7.75-7.75zm2.53 10.28a.75.75 0 0 1 -1.06 0l-2-2a.75.75 0 0 1 -.22-.53v-4a.75.75 0 0 1 1.5 0v3.69l1.78 1.78a.75.75 0 0 1 0 1.06z"/><path d="m8 6.75h-3a.75.75 0 0 1 0-1.5h3a.75.75 0 0 1 0 1.5z"/><path d="m6 9.75h-3a.75.75 0 0 1 0-1.5h3a.75.75 0 0 1 0 1.5z"/><path d="m6 15.75h-3a.75.75 0 0 1 0-1.5h3a.75.75 0 0 1 0 1.5z"/><path d="m6 12.75h-4a.75.75 0 0 1 0-1.5h4a.75.75 0 0 1 0 1.5z"/><path d="m8 18.75h-3a.75.75 0 0 1 0-1.5h3a.75.75 0 0 1 0 1.5z"/></g></svg>