<svg viewBox="0 0 64 64" xmlns="http://www.w3.org/2000/svg"><g id="_01_Envelope" data-name="01 Envelope"><g><path d="m62.672 13.606a5.017 5.017 0 0 0 -3.672-1.606h-4a1 1 0 0 0 0 2h4a3 3 0 0 1 2.99 3.235l-2.368 30a3.014 3.014 0 0 1 -2.991 2.765h-43.975a3 3 0 0 1 -2.99-3.235l.37-4.686a1 1 0 0 0 -1.994-.158l-.371 4.685a5 5 0 0 0 4.985 5.394h43.975a5.025 5.025 0 0 0 4.985-4.606l2.368-30a5.016 5.016 0 0 0 -1.312-3.788z"/><path d="m10.539 23h.08a1 1 0 0 0 1-.921l.419-5.315a3.015 3.015 0 0 1 2.986-2.764h35.976a1 1 0 0 0 0-2h-35.976a5.024 5.024 0 0 0 -4.984 4.606l-.419 5.315a1 1 0 0 0 .918 1.079z"/><path d="m59.743 16.331a1 1 0 0 0 -1.412-.074l-18.514 16.662a4.318 4.318 0 0 1 -5.634 0l-18.514-16.662a1 1 0 0 0 -1.338 1.486l16.769 15.094-16.725 13.382a1 1 0 0 0 1.25 1.562l16.985-13.587.235.211a6.209 6.209 0 0 0 8.31 0l.186-.167 14.477 13.493a1 1 0 1 0 1.364-1.462l-14.349-13.369 16.836-15.157a1 1 0 0 0 .074-1.412z"/><path d="m18 34a1 1 0 0 0 -1-1h-16a1 1 0 0 0 0 2h16a1 1 0 0 0 1-1z"/><path d="m5 31h10a1 1 0 0 0 0-2h-10a1 1 0 0 0 0 2z"/><path d="m9 27h4a1 1 0 0 0 0-2h-4a1 1 0 0 0 0 2z"/><path d="m14 38a1 1 0 0 0 -1-1h-10a1 1 0 0 0 0 2h10a1 1 0 0 0 1-1z"/></g></g></svg>