<svg id="Icon_Set" height="512" viewBox="0 0 256 256" width="512" xmlns="http://www.w3.org/2000/svg"><g><g><g><g><g><g><path d="m89.824 45.212h159.458v106.043h-159.458z" fill="#f9d335"/><path d="m89.828 45.213h16.13v106.04h-16.13z" fill="#f9e27d"/><g fill="#f2c300"><path d="m233.151 45.213h16.13v106.04h-16.13z"/><path d="m249.282 45.212-79.719 53.026-79.739-53.026z"/></g></g></g></g></g></g><g fill="#5f266d"><path d="m253.289 151.266-.001-106.019c0-.006 0-.013 0-.019v-.014c0-2.214-1.832-3.998-3.999-4h-.001-159.465c-2.219.003-4.002 1.828-4.002 4v73.05h-79.11c-2.209 0-4 1.791-4 4s1.791 4 4 4h79.11v20.99h-39.684c-2.209 0-4 1.791-4 4s1.791 4 4 4c197.452 0 203.038.011 203.152.012 2.117-.001 4-1.717 4-4zm-17.24-102.053-66.492 44.222-66.492-44.222zm-142.228 73.123c0-.025.007-.048.007-.073s-.007-.048-.007-.073v-69.516l39.986 26.593-39.986 61.517zm5.33 24.93 41.319-63.568 26.872 17.871c1.343.893 3.088.893 4.431 0l26.904-17.893 43.073 63.589h-142.599zm106.186-68.019 39.951-26.57v69.387l.001 16.164z"/><path d="m131 128.883h-3.478c-2.209 0-4 1.791-4 4s1.791 4 4 4h3.478c2.209 0 4-1.791 4-4s-1.791-4-4-4z"/><path d="m161 128.883h-15c-2.209 0-4 1.791-4 4s1.791 4 4 4h15c2.209 0 4-1.791 4-4s-1.791-4-4-4z"/><path d="m136.534 180.115h-61.15c-2.209 0-4 1.791-4 4s1.791 4 4 4h61.15c2.209 0 4-1.791 4-4s-1.791-4-4-4z"/><path d="m209.984 200.149h-61.15c-2.209 0-4 1.791-4 4s1.791 4 4 4h61.15c2.209 0 4-1.791 4-4s-1.791-4-4-4z"/><path d="m101.862 206.788h-61.15c-2.209 0-4 1.791-4 4s1.791 4 4 4h61.15c2.209 0 4-1.791 4-4s-1.791-4-4-4z"/></g></g></svg>