<svg id="Capa_1" enable-background="new 0 0 511.97 511.97" viewBox="0 0 511.97 511.97" xmlns="http://www.w3.org/2000/svg"><g><g><path d="m282.978 159.044c-8.974.231-16.546-8.668-14.786-17.536l5.993-34.939-25.385-24.745c-4.088-3.985-5.56-9.946-3.795-15.377 1.764-5.43 6.458-9.388 12.108-10.209l35.082-5.098 15.689-31.789c2.527-5.12 7.741-8.362 13.451-8.362s10.924 3.242 13.451 8.362l15.688 31.789 35.082 5.098c5.65.821 10.345 4.779 12.108 10.209 1.765 5.43.293 11.391-3.796 15.377l-25.385 24.745 5.992 34.939c.965 5.628-1.349 11.315-5.968 14.671-4.618 3.355-10.741 3.799-15.797 1.142l-31.377-16.496-31.378 16.496c-2.193 1.153-4.59 1.723-6.977 1.723z"/><path d="m375.794 310.928c-8.973.231-16.545-8.668-14.786-17.536l7.507-43.768-31.799-30.997c-4.089-3.985-5.561-9.946-3.796-15.376 1.764-5.43 6.458-9.388 12.108-10.209l43.945-6.385 19.652-39.821c2.527-5.12 7.741-8.362 13.451-8.362s10.924 3.241 13.451 8.361l19.653 39.821 43.945 6.385c5.65.821 10.344 4.779 12.108 10.209 1.765 5.43.293 11.391-3.796 15.376l-31.799 30.997 7.507 43.768c.965 5.627-1.349 11.315-5.968 14.671-4.617 3.355-10.739 3.799-15.797 1.142l-39.306-20.664-39.305 20.664c-2.192 1.155-4.588 1.724-6.975 1.724z"/></g><g><path d="m381.295 358.771c-9.128-14.465-24.786-23.126-41.889-23.168l-38.892-.118 6.721-28.966c2.874-12.386.688-25.108-6.159-35.823-9.098-14.805-26.255-22.794-43.417-20.851-3.864 0-7.383 2.227-9.038 5.719l-21.735 45.884c-5.768 12.179-14.705 22.626-25.845 30.211l-44.746 30.468v138.853h142.079c24.951 0 47.976-14.57 58.657-37.119l27.147-57.304c7.323-15.457 6.245-33.321-2.883-47.786z"/><path d="m70.342 362.141c-5.523 0-10 4.477-10 10v118.769c0 5.523 4.477 10 10 10h55.954v-138.769z"/></g><g><circle cx="141.441" cy="120.022" r="67.018"/><path d="m141.441 217.04c-15.309 0-29.798-3.569-42.687-9.912-42.494 3.805-77.707 35.524-85.382 78.215l-13.104 72.882c-.589 3.274-.224 6.688 1.264 9.663 2.599 5.199 7.837 8.329 13.439 8.329h25.372v-29.076c0-8.284 6.716-15 15-15h91.688l37.127-25.28c6.731-4.583 12.132-10.896 15.617-18.255l21.736-45.886c2.992-6.317 7.567-11.603 13.101-15.506-14.221-11.202-31.64-18.39-50.496-20.08-12.887 6.339-27.371 9.906-42.675 9.906z"/></g></g><g/><g/><g/><g/><g/><g/><g/><g/><g/><g/><g/><g/><g/><g/><g/></svg>